<?xml version="1.0" standalone="no"?><!DOCTYPE svg PUBLIC "-//W3C//DTD SVG 1.1//EN" "http://www.w3.org/Graphics/SVG/1.1/DTD/svg11.dtd"><svg fill="#999999" t="1702397612746" class="icon" viewBox="0 0 1024 1024" version="1.1" xmlns="http://www.w3.org/2000/svg" p-id="4390" xmlns:xlink="http://www.w3.org/1999/xlink" width="16" height="16"><path d="M826.58 197.37C742.68 113.38 631 67.13 512.1 67.13c-118.31 0-229.96 46.23-314.4 130.16l-0.15 0.16c-83.83 84.52-130 196.28-130 314.68 0 119.01 46.2 230.8 130.15 314.84 84.44 83.93 196.09 130.15 314.4 130.15 118.91 0 230.6-46.25 314.47-130.24 83.88-83.95 130.08-195.74 130.08-314.76 0-118.4-46.17-230.16-130.07-314.75z m66.58 286.61H746.33c-2.72-70.93-15.21-139.51-36.82-203.17 24.01-12.33 46.85-27.03 68.39-43.85 1.51 1.46 3.16 2.73 4.65 4.22 65.51 66.06 103.97 151.44 110.61 242.8zM590.99 886.77c-16.62 3.46-33.58 5.64-50.75 6.88V724.01c42.76 3.07 84.19 12.65 122.94 28.84-18.49 48.81-42.57 94.02-72.19 133.92z m109.59-115.73c19.19 10.56 37.5 22.83 54.85 36.63-30.93 25.61-65.38 45.76-102.11 60.32 18.38-30.31 34.1-62.81 47.26-96.95zM427.94 885.37c-28.87-39.17-52.5-83.36-70.71-131.07 39.95-17.1 82.66-27.28 126.73-30.34v169.68c-18.99-1.39-37.68-4.15-56.02-8.27z m-62.61-19.56c-34.74-14.45-67.33-34.14-96.9-58.57a396.288 396.288 0 0 1 51.5-34.44c12.72 32.7 27.89 63.81 45.4 93.01z m64.24-727.33c17.82-3.92 35.97-6.52 54.38-7.86v155.22c-42-2.92-82.82-12.16-121.14-27.86 17.76-43.23 40.07-83.47 66.76-119.5z m-104.16 101.8c-16.47-8.89-32.16-19.33-47.36-30.6 27.48-21.3 57.24-38.87 88.89-51.87-15.75 26.04-29.58 53.65-41.53 82.47z m263.93-103.21c27.39 36.71 50.18 77.82 68.24 122.02-37.14 14.85-76.61 23.78-117.33 26.7V130.61c16.58 1.2 33 3.19 49.09 6.46z m62.42 18.62c33.62 13.16 65.19 31.17 94.07 53.58-16.18 12.09-32.97 23.18-50.65 32.55-12.42-30.16-26.86-59.01-43.42-86.13z m-167.8 171.56v156.73h-169c2.65-65.37 14.03-128.52 33.62-187.14 42.82 17.36 88.43 27.46 135.38 30.41z m0 213.02v142.28c-48.81 3.07-96.18 13.86-140.48 32.48-16.86-54.98-26.32-113.94-28.6-174.76h169.08z m56.28 142.33V540.27H705c-2.25 60.32-11.62 118.78-28.22 173.36-43.05-17.69-89.08-27.96-136.54-31.03z m0-198.62V327.2c45.62-2.96 89.86-12.73 131.47-29.22 19.36 58.3 30.59 121.06 33.22 186H540.24zM241.57 241.27c1.39-1.38 2.93-2.56 4.34-3.91 20.58 15.95 42.22 30.12 64.99 42.02-21.91 64.07-34.59 133.15-37.34 204.61H131.04c6.63-91.32 45.07-176.68 110.53-242.72z m-110.54 299h142.45c2.38 67.12 13.11 132.21 32.3 192.79a436.595 436.595 0 0 0-68.18 45.55c-62.98-64.98-100.11-148.52-106.57-238.34z m655.19 238.75a431.958 431.958 0 0 0-71.52-47.58c18.86-60.1 29.36-124.65 31.71-191.17h146.76c-6.48 90.02-43.73 173.72-106.95 238.75z" p-id="4391"></path></svg>