<?xml version="1.0" standalone="no"?><!DOCTYPE svg PUBLIC "-//W3C//DTD SVG 1.1//EN" "http://www.w3.org/Graphics/SVG/1.1/DTD/svg11.dtd"><svg t="1701828798761" class="icon" viewBox="0 0 1024 1024" version="1.1" xmlns="http://www.w3.org/2000/svg" p-id="5164" xmlns:xlink="http://www.w3.org/1999/xlink" width="200" height="200"><path d="M400.885333 95.690667A21.333333 21.333333 0 0 0 382.592 85.333333H176.341333c-16.576 0-26.816 18.090667-18.293333 32.309334l230.4 384a21.333333 21.333333 0 0 0 18.293333 10.357333h206.250667c16.576 0 26.816-18.090667 18.293333-32.309333l-230.4-384z" fill="#0355B6" p-id="5165"></path><path d="M382.592 64H176.341333c-33.162667 0-53.653333 36.181333-36.586666 64.618667l230.4 384A42.666667 42.666667 0 0 0 406.752 533.333333h206.250667c33.162667 0 53.653333-36.181333 36.586666-64.618666l-230.4-384A42.666667 42.666667 0 0 0 382.592 64z m0 21.333333a21.333333 21.333333 0 0 1 18.293333 10.357334l230.4 384c8.533333 14.218667-1.706667 32.309333-18.293333 32.309333H406.741333a21.333333 21.333333 0 0 1-18.293333-10.357333l-230.4-384c-8.533333-14.218667 1.706667-32.309333 18.293333-32.309334h206.250667z" fill="#023E84" p-id="5166"></path><path d="M623.114667 95.690667A21.333333 21.333333 0 0 1 641.408 85.333333h206.250667c16.576 0 26.816 18.090667 18.293333 32.309334l-230.4 384a21.333333 21.333333 0 0 1-18.293333 10.357333H411.008c-16.576 0-26.816-18.090667-18.293333-32.309333l230.4-384z" fill="#086FE9" p-id="5167"></path><path d="M641.408 64h206.250667c33.162667 0 53.653333 36.181333 36.586666 64.618667l-230.4 384A42.666667 42.666667 0 0 1 617.258667 533.333333H411.008c-33.162667 0-53.653333-36.181333-36.586667-64.618666l230.4-384A42.666667 42.666667 0 0 1 641.408 64z m0 21.333333a21.333333 21.333333 0 0 0-18.293333 10.357334l-230.4 384c-8.533333 14.218667 1.706667 32.309333 18.293333 32.309333h206.250667a21.333333 21.333333 0 0 0 18.293333-10.357333l230.4-384c8.533333-14.218667-1.706667-32.309333-18.293333-32.309334H641.408z" fill="#023E84" p-id="5168"></path><path d="M645.354667 97.44a10.666667 10.666667 0 0 1 3.872 14.581333l-96 165.333334a10.666667 10.666667 0 1 1-18.453334-10.709334l96-165.333333a10.666667 10.666667 0 0 1 14.581334-3.872z" fill="#3D96FF" p-id="5169"></path><path d="M175.978667 97.44a10.666667 10.666667 0 0 0-3.872 14.581333l96 165.333334a10.666667 10.666667 0 1 0 18.453333-10.709334l-96-165.333333a10.666667 10.666667 0 0 0-14.581333-3.872z" fill="#1871DA" p-id="5170"></path><path d="M378.666667 120.330667c0 7.552-5.973333 13.664-13.333334 13.664S352 127.893333 352 120.352c0-7.552 5.973333-13.674667 13.333333-13.674667s13.333333 6.122667 13.333334 13.664zM331.84 123.669333c0 9.386667-7.424 17.002667-16.586667 17.002667S298.666667 133.045333 298.666667 123.669333c0-9.386667 7.424-17.002667 16.586666-17.002666s16.586667 7.605333 16.586667 17.002666zM373.333333 172.330667c0 9.386667-7.424 17.002667-16.586666 17.002666s-16.586667-7.605333-16.586667-17.002666c0-9.386667 7.424-16.992 16.586667-16.992S373.333333 162.933333 373.333333 172.32zM411.253333 149.162667c0 4.693333-3.712 8.501333-8.298666 8.501333a8.394667 8.394667 0 0 1-8.288-8.501333c0-4.693333 3.712-8.490667 8.288-8.490667 4.586667 0 8.298667 3.797333 8.298666 8.490667zM323.541333 163.84c0 4.693333-3.712 8.490667-8.288 8.490667a8.394667 8.394667 0 0 1-8.298666-8.501334c0-4.693333 3.712-8.490667 8.298666-8.490666 4.586667 0 8.288 3.797333 8.288 8.490666zM277.333333 111.829333c0 4.693333-3.712 8.501333-8.288 8.501334a8.394667 8.394667 0 0 1-8.298666-8.501334c0-4.693333 3.712-8.490667 8.288-8.490666 4.586667 0 8.298667 3.797333 8.298666 8.490666zM402.954667 208.501333c0 4.693333-3.712 8.501333-8.288 8.501334a8.394667 8.394667 0 0 1-8.298667-8.501334c0-4.693333 3.722667-8.501333 8.298667-8.501333 4.586667 0 8.288 3.808 8.288 8.501333zM360.288 217.002667c0 4.693333-3.712 8.501333-8.288 8.501333a8.394667 8.394667 0 0 1-8.298667-8.501333c0-4.693333 3.722667-8.501333 8.298667-8.501334 4.586667 0 8.288 3.808 8.288 8.501334zM442.986667 186.165333c0 7.637333-6.037333 13.834667-13.493334 13.834667S416 193.813333 416 186.165333c0-7.637333 6.037333-13.834667 13.493333-13.834666s13.504 6.186667 13.504 13.834666zM460.586667 225.493333c0 4.693333-3.712 8.501333-8.298667 8.501334a8.394667 8.394667 0 0 1-8.288-8.490667c0-4.693333 3.712-8.501333 8.288-8.501333 4.586667 0 8.298667 3.808 8.298667 8.501333z" fill="#034592" p-id="5171"></path><path d="M800 650.666667c0 159.061333-128.938667 288-288 288S224 809.728 224 650.666667s128.938667-288 288-288 288 128.938667 288 288z" fill="#FFBB0D" p-id="5172"></path><path d="M821.333333 650.666667c0 170.837333-138.496 309.333333-309.333333 309.333333S202.666667 821.504 202.666667 650.666667s138.496-309.333333 309.333333-309.333334 309.333333 138.496 309.333333 309.333334zM512 938.666667c159.061333 0 288-128.938667 288-288S671.061333 362.666667 512 362.666667 224 491.605333 224 650.666667s128.938667 288 288 288z" fill="#E89B05" p-id="5173"></path><path d="M245.333333 661.333333a10.666667 10.666667 0 0 1-10.666666-10.666666c0-153.173333 124.16-277.333333 277.333333-277.333334a10.666667 10.666667 0 1 1 0 21.333334c-141.386667 0-256 114.613333-256 256a10.666667 10.666667 0 0 1-10.666667 10.666666z" fill="#FFD15C" p-id="5174"></path><path d="M778.666667 640a10.666667 10.666667 0 0 1 10.666666 10.666667c0 153.173333-124.16 277.333333-277.333333 277.333333a10.666667 10.666667 0 1 1 0-21.333333c141.386667 0 256-114.613333 256-256a10.666667 10.666667 0 0 1 10.666667-10.666667z" fill="#EEAD04" p-id="5175"></path><path d="M725.333333 650.666667c0 117.824-95.509333 213.333333-213.333333 213.333333s-213.333333-95.509333-213.333333-213.333333 95.509333-213.333333 213.333333-213.333334 213.333333 95.509333 213.333333 213.333334z" fill="#FFDD28" p-id="5176"></path><path d="M746.666667 650.666667c0 129.6-105.066667 234.666667-234.666667 234.666666s-234.666667-105.066667-234.666667-234.666666 105.066667-234.666667 234.666667-234.666667 234.666667 105.066667 234.666667 234.666667zM512 864c117.824 0 213.333333-95.509333 213.333333-213.333333s-95.509333-213.333333-213.333333-213.333334-213.333333 95.509333-213.333333 213.333334 95.509333 213.333333 213.333333 213.333333z" fill="#E89B05" p-id="5177"></path><path d="M512 832c100.149333 0 181.333333-81.184 181.333333-181.333333a10.666667 10.666667 0 1 1 21.333334 0c0 111.925333-90.741333 202.666667-202.666667 202.666666a10.666667 10.666667 0 1 1 0-21.333333z" fill="#ECC704" p-id="5178"></path><path d="M512 469.333333c-100.149333 0-181.333333 81.184-181.333333 181.333334a10.666667 10.666667 0 1 1-21.333334 0c0-111.925333 90.741333-202.666667 202.666667-202.666667a10.666667 10.666667 0 1 1 0 21.333333z" fill="#FFEF9C" p-id="5179"></path><path d="M394.666667 622.933333l73.333333-14.933333 22.005333-37.333333L512 533.333333l44 74.666667L629.333333 622.933333 570.666667 682.666667l14.666666 74.666666L512 720 438.666667 757.333333l14.666666-74.666666-58.666666-59.733334z" fill="#FFEF9C" p-id="5180"></path><path d="M468 608L512 533.333333l44 74.666667L629.333333 622.933333 570.666667 682.666667l14.666666 74.666666L512 720 438.666667 757.333333l14.666666-74.666666-58.666666-59.733334 73.333333-14.933333z m-37.76 81.6L379.434667 637.866667a21.333333 21.333333 0 0 1 10.965333-35.84l64.032-13.045334 39.178667-66.485333a21.333333 21.333333 0 0 1 36.757333 0l39.178667 66.485333L633.6 602.026667a21.333333 21.333333 0 0 1 10.965333 35.850666l-50.784 51.712 12.501334 63.637334a21.333333 21.333333 0 0 1-30.613334 23.114666L512 743.936l-63.658667 32.405333a21.333333 21.333333 0 0 1-30.613333-23.114666l12.501333-63.637334z" fill="#E89B05" p-id="5181"></path></svg>